<svg width="257" height="34" viewBox="0 0 257 34" fill="none" xmlns="http://www.w3.org/2000/svg">
<g filter="url(#filter0_d_1_8)">
<path d="M25.248 18.916C24.528 20.956 23.352 22.54 21.72 23.668C20.112 24.796 18.204 25.36 15.996 25.36C13.86 25.36 11.988 24.868 10.38 23.884C8.796 22.876 7.572 21.46 6.708 19.636C5.844 17.812 5.412 15.64 5.412 13.12C5.412 10.624 5.844 8.464 6.708 6.64C7.572 4.792 8.796 3.376 10.38 2.392C11.964 1.384 13.812 0.879999 15.924 0.879999C17.436 0.879999 18.768 1.096 19.92 1.528C21.096 1.96 22.092 2.596 22.908 3.436C23.748 4.252 24.396 5.272 24.852 6.496L22.332 7.72C21.828 6.256 21.072 5.152 20.064 4.408C19.056 3.664 17.736 3.292 16.104 3.292C14.52 3.292 13.128 3.688 11.928 4.48C10.728 5.248 9.792 6.364 9.12 7.828C8.448 9.292 8.112 11.056 8.112 13.12C8.112 15.136 8.424 16.888 9.048 18.376C9.696 19.84 10.608 20.968 11.784 21.76C12.984 22.552 14.388 22.948 15.996 22.948C17.628 22.948 19.02 22.528 20.172 21.688C21.348 20.848 22.176 19.6 22.656 17.944L25.248 18.916ZM39.9391 0.879999C42.1231 0.879999 44.0071 1.384 45.5911 2.392C47.1991 3.376 48.4351 4.78 49.2991 6.604C50.1631 8.428 50.5951 10.6 50.5951 13.12C50.5951 15.64 50.1631 17.812 49.2991 19.636C48.4351 21.46 47.1991 22.876 45.5911 23.884C44.0071 24.868 42.1231 25.36 39.9391 25.36C37.7551 25.36 35.8591 24.868 34.2511 23.884C32.6671 22.876 31.4431 21.46 30.5791 19.636C29.7151 17.812 29.2831 15.64 29.2831 13.12C29.2831 10.6 29.7151 8.428 30.5791 6.604C31.4431 4.78 32.6671 3.376 34.2511 2.392C35.8591 1.384 37.7551 0.879999 39.9391 0.879999ZM39.9391 3.292C38.3071 3.292 36.8911 3.688 35.6911 4.48C34.5151 5.272 33.6031 6.4 32.9551 7.864C32.3071 9.328 31.9831 11.08 31.9831 13.12C31.9831 15.16 32.3071 16.912 32.9551 18.376C33.6031 19.84 34.5151 20.968 35.6911 21.76C36.8911 22.552 38.3071 22.948 39.9391 22.948C41.5711 22.948 42.9751 22.552 44.1511 21.76C45.3511 20.968 46.2751 19.84 46.9231 18.376C47.5711 16.912 47.8951 15.16 47.8951 13.12C47.8951 11.08 47.5711 9.328 46.9231 7.864C46.2751 6.4 45.3511 5.272 44.1511 4.48C42.9751 3.688 41.5711 3.292 39.9391 3.292ZM64.2602 1.24C67.8602 1.24 70.6682 2.26 72.6842 4.3C74.7242 6.34 75.7442 9.268 75.7442 13.084C75.7442 16.924 74.7242 19.876 72.6842 21.94C70.6682 23.98 67.8602 25 64.2602 25H56.8442V1.24H64.2602ZM64.4762 22.588C67.1882 22.588 69.2882 21.748 70.7762 20.068C72.2642 18.388 73.0082 16.06 73.0082 13.084C73.0082 11.092 72.6722 9.4 72.0002 8.008C71.3282 6.592 70.3562 5.512 69.0842 4.768C67.8122 4.024 66.2762 3.652 64.4762 3.652H59.4362V22.588H64.4762ZM82.0161 25V1.24H97.9641V3.652H84.6081V11.716H95.0481V14.164H84.6081V22.588H98.4681V25H82.0161ZM116.118 25V1.24H124.29C126.93 1.24 128.862 1.816 130.086 2.968C131.334 4.12 131.958 5.704 131.958 7.72C131.958 8.896 131.634 9.988 130.986 10.996C130.338 12.004 129.342 12.64 127.998 12.904V12.94C129.39 13.204 130.494 13.852 131.31 14.884C132.126 15.892 132.534 17.068 132.534 18.412C132.534 20.428 131.814 22.036 130.374 23.236C128.958 24.412 126.93 25 124.29 25H116.118ZM118.71 22.588H124.794C126.45 22.588 127.698 22.228 128.538 21.508C129.378 20.764 129.798 19.732 129.798 18.412C129.798 17.068 129.378 16.036 128.538 15.316C127.698 14.596 126.45 14.236 124.794 14.236H118.71V22.588ZM118.71 11.824H124.254C125.91 11.824 127.146 11.488 127.962 10.816C128.802 10.144 129.222 9.112 129.222 7.72C129.222 6.376 128.802 5.368 127.962 4.696C127.146 4 125.91 3.652 124.254 3.652H118.71V11.824ZM147.469 1.24C149.773 1.24 151.621 1.852 153.013 3.076C154.429 4.3 155.137 5.98 155.137 8.116C155.137 9.532 154.813 10.72 154.165 11.68C153.517 12.616 152.605 13.348 151.429 13.876C150.277 14.404 148.945 14.776 147.433 14.992L147.181 15.028H141.385V25H138.793V1.24H147.469ZM147.397 12.58C149.053 12.58 150.301 12.208 151.141 11.464C151.981 10.696 152.401 9.58 152.401 8.116C152.401 6.628 151.981 5.512 151.141 4.768C150.301 4.024 149.053 3.652 147.397 3.652H141.385V12.58H147.397ZM148.981 13.084L156.433 25H153.373L146.821 14.524L148.981 13.084ZM179.893 25H177.121L174.601 18.196H164.089L161.569 25H158.833L167.833 1.24H170.929L179.893 25ZM164.989 15.748H173.701L169.345 3.76L164.989 15.748ZM202.494 1.24V25H199.326L189.174 8.368L186.978 4.264H186.942L187.05 7.684V25H184.602V1.24H187.77L197.886 17.836L200.118 22.012H200.154L200.046 18.556V1.24H202.494ZM228.592 18.916C227.872 20.956 226.696 22.54 225.064 23.668C223.456 24.796 221.548 25.36 219.34 25.36C217.204 25.36 215.332 24.868 213.724 23.884C212.14 22.876 210.916 21.46 210.052 19.636C209.188 17.812 208.756 15.64 208.756 13.12C208.756 10.624 209.188 8.464 210.052 6.64C210.916 4.792 212.14 3.376 213.724 2.392C215.308 1.384 217.156 0.879999 219.268 0.879999C220.78 0.879999 222.112 1.096 223.264 1.528C224.44 1.96 225.436 2.596 226.252 3.436C227.092 4.252 227.74 5.272 228.196 6.496L225.676 7.72C225.172 6.256 224.416 5.152 223.408 4.408C222.4 3.664 221.08 3.292 219.448 3.292C217.864 3.292 216.472 3.688 215.272 4.48C214.072 5.248 213.136 6.364 212.464 7.828C211.792 9.292 211.456 11.056 211.456 13.12C211.456 15.136 211.768 16.888 212.392 18.376C213.04 19.84 213.952 20.968 215.128 21.76C216.328 22.552 217.732 22.948 219.34 22.948C220.972 22.948 222.364 22.528 223.516 21.688C224.692 20.848 225.52 19.6 226 17.944L228.592 18.916ZM251.959 1.24V25H249.367V1.24H251.959ZM236.659 1.24V25H234.067V1.24H236.659ZM250.591 11.716V14.164H235.435V11.716H250.591Z" fill="white"/>
</g>
<defs>
<filter id="filter0_d_1_8" x="0.911987" y="0.380005" width="255.547" height="33.48" filterUnits="userSpaceOnUse" color-interpolation-filters="sRGB">
<feFlood flood-opacity="0" result="BackgroundImageFix"/>
<feColorMatrix in="SourceAlpha" type="matrix" values="0 0 0 0 0 0 0 0 0 0 0 0 0 0 0 0 0 0 127 0" result="hardAlpha"/>
<feOffset dy="4"/>
<feGaussianBlur stdDeviation="2.25"/>
<feComposite in2="hardAlpha" operator="out"/>
<feColorMatrix type="matrix" values="0 0 0 0 0 0 0 0 0 0 0 0 0 0 0 0 0 0 0.5 0"/>
<feBlend mode="normal" in2="BackgroundImageFix" result="effect1_dropShadow_1_8"/>
<feBlend mode="normal" in="SourceGraphic" in2="effect1_dropShadow_1_8" result="shape"/>
</filter>
</defs>
</svg>
